<mxfile host="Electron" modified="2023-11-22T00:36:17.887Z" agent="Mozilla/5.0 (X11; Linux x86_64) AppleWebKit/537.36 (KHTML, like Gecko) draw.io/22.1.2 Chrome/114.0.5735.289 Electron/25.9.4 Safari/537.36" etag="Z-Pqpj6xuf3DuVvSxQfb" version="22.1.2" type="device">
  <diagram id="prtHgNgQTEPvFCAcTncT" name="Page-1">
    <mxGraphModel dx="1434" dy="834" grid="1" gridSize="10" guides="1" tooltips="1" connect="1" arrows="1" fold="1" page="1" pageScale="1" pageWidth="827" pageHeight="1169" math="0" shadow="0">
      <root>
        <mxCell id="0" />
        <mxCell id="1" parent="0" />
        <mxCell id="dNxyNK7c78bLwvsdeMH5-11" value="Homelab" style="swimlane;html=1;startSize=20;horizontal=1;containerType=tree;glass=0;" parent="1" vertex="1">
          <mxGeometry x="50" y="100" width="790" height="760" as="geometry" />
        </mxCell>
        <UserObject label="Main PC" name="Tessa Miller" position="CFO" location="Office 1" email="me@example.com" placeholders="1" link="https://www.draw.io" id="dNxyNK7c78bLwvsdeMH5-12">
          <mxCell style="label;image=https://cdn3.iconfinder.com/data/icons/user-avatars-1/512/users-3-128.png;whiteSpace=wrap;html=1;rounded=0;glass=0;treeMoving=1;treeFolding=1;" parent="dNxyNK7c78bLwvsdeMH5-11" vertex="1">
            <mxGeometry x="320" y="170" width="180" height="70" as="geometry" />
          </mxCell>
        </UserObject>
        <UserObject label="Tessa Miller&lt;br&gt;&lt;i style=&quot;color: gray&quot;&gt;CFO&lt;/i&gt;&lt;br&gt;&lt;a href=&quot;mailto:me@example.com&quot;&gt;Email&lt;/a&gt;" name="Tessa Miller" position="CFO" location="Office 1" email="me@example.com" placeholders="1" link="https://www.draw.io" id="Icmt_NBIgYBtfCHXLM_S-2">
          <mxCell style="label;image=https://cdn3.iconfinder.com/data/icons/user-avatars-1/512/users-3-128.png;whiteSpace=wrap;html=1;rounded=0;glass=0;treeMoving=1;treeFolding=1;" vertex="1" parent="dNxyNK7c78bLwvsdeMH5-11">
            <mxGeometry x="170" y="360" width="180" height="70" as="geometry" />
          </mxCell>
        </UserObject>
        <UserObject label="Tessa Miller&lt;br&gt;&lt;i style=&quot;color: gray&quot;&gt;CFO&lt;/i&gt;&lt;br&gt;&lt;a href=&quot;mailto:me@example.com&quot;&gt;Email&lt;/a&gt;" name="Tessa Miller" position="CFO" location="Office 1" email="me@example.com" placeholders="1" link="https://www.draw.io" id="Icmt_NBIgYBtfCHXLM_S-3">
          <mxCell style="label;image=https://cdn3.iconfinder.com/data/icons/user-avatars-1/512/users-3-128.png;whiteSpace=wrap;html=1;rounded=0;glass=0;treeMoving=1;treeFolding=1;" vertex="1" parent="dNxyNK7c78bLwvsdeMH5-11">
            <mxGeometry x="40" y="170" width="180" height="70" as="geometry" />
          </mxCell>
        </UserObject>
        <mxCell id="Icmt_NBIgYBtfCHXLM_S-4" value="" style="image;aspect=fixed;perimeter=ellipsePerimeter;html=1;align=center;shadow=0;dashed=0;spacingTop=3;image=img/lib/active_directory/tablet_pc.svg;" vertex="1" parent="dNxyNK7c78bLwvsdeMH5-11">
          <mxGeometry x="330" y="180" width="36.5" height="50" as="geometry" />
        </mxCell>
      </root>
    </mxGraphModel>
  </diagram>
</mxfile>
